# xmcd
#
# Track frame offsets:
#	150
#	17193
#	34919
#	66984
#	82015
#	94631
#	117711
#	133389
#	151140
#	167542
#	191130
#	205257
#	218730
#
# Disc length: 3193 seconds
#
# Revision: 0
# Processed by: cddbd v1.4PL0 Copyright (c) Steve Scherf et al.
# Submitted via: dBpowerAMP V4.0
#
DISCID=be0c770d
DTITLE=Marva Wright - Bluesianna Mama
DYEAR=2002
DGENRE=Blues
TTITLE0=Bluesianna Mama
TTITLE1=Mama He Treats Your Daughter Mean
TTITLE2=I'g Rather Go Blind
TTITLE3=Never Make Your Move To Soon
TTITLE4=Let The Good Times Roll
TTITLE5=Driving Wheel
TTITLE6=Whole Lotta Shakin' Going On
TTITLE7=See See Rider
TTITLE8=Memebers Only
TTITLE9=Little Red Rooster
TTITLE10=Mojo Working
TTITLE11=Go Tell It On The Mountain
TTITLE12=Boogie
EXTD=
EXTT0=
EXTT1=
EXTT2=
EXTT3=
EXTT4=
EXTT5=
EXTT6=
EXTT7=
EXTT8=
EXTT9=
EXTT10=
EXTT11=
EXTT12=
PLAYORDER=
